<svg width="511" height="512" xmlns="http://www.w3.org/2000/svg" xmlns:xlink="http://www.w3.org/1999/xlink" overflow="hidden"><defs><clipPath id="clip0"><rect x="325" y="464" width="511" height="512"/></clipPath></defs><g clip-path="url(#clip0)" transform="translate(-325 -464)"><path d="M833.657 891.343 790.17 847.856C799.074 846.779 806 839.189 806 830L806 789C806 779.752 798.986 772.117 790 771.118L790 511C790 501.075 781.925 493 772 493L734 493 734 489C734 475.767 723.233 465 710 465L452 465C438.767 465 428 475.767 428 489L428 493 390 493C380.075 493 372 501.075 372 511L372 771.118C363.014 772.117 356 779.752 356 789L356 830C356 839.189 362.926 846.779 371.83 847.856L328.343 891.343C325.219 894.468 325.219 899.532 328.343 902.657 331.468 905.78 336.532 905.78 339.657 902.657L372 870.314 372 913C372 917.418 375.582 921 380 921 384.418 921 388 917.418 388 913L388 870.314 420.343 902.657C421.905 904.219 423.952 905 426 905 428.048 905 430.095 904.219 431.657 902.657 434.781 899.532 434.781 894.468 431.657 891.343L388.171 847.856C397.074 846.779 404 839.189 404 830L404 789C404 779.752 396.986 772.117 388 771.118L388 511C388 509.897 388.898 509 390 509L428 509 428 513C428 523.249 434.46 532.014 443.521 535.448L443.521 897.062C443.521 910.787 437.923 924.193 428.162 933.842L400.376 961.311C398.068 963.592 397.367 967.039 398.601 970.04 399.833 973.041 402.756 975 406 975L756 975C759.244 975 762.167 973.041 763.399 970.04 764.633 967.039 763.932 963.592 761.624 961.311L733.838 933.842C724.077 924.193 718.479 910.787 718.479 897.062L718.479 535.448C727.54 532.014 734 523.249 734 513L734 509 772 509C773.102 509 774 509.897 774 511L774 771.118C765.014 772.117 758 779.752 758 789L758 830C758 839.189 764.926 846.779 773.829 847.856L730.343 891.343C727.219 894.468 727.219 899.532 730.343 902.657 733.468 905.78 738.532 905.78 741.657 902.657L774 870.314 774 913C774 917.418 777.582 921 782 921 786.418 921 790 917.418 790 913L790 870.314 822.343 902.657C823.905 904.219 825.952 905 828 905 830.048 905 832.095 904.219 833.657 902.657 836.781 899.532 836.781 894.468 833.657 891.343ZM372 789C372 787.897 372.898 787 374 787L386 787C387.103 787 388 787.897 388 789L388 830C388 831.103 387.103 832 386 832L374 832C372.898 832 372 831.103 372 830L372 789ZM444 489C444 484.589 447.589 481 452 481L710 481C714.411 481 718 484.589 718 489L718 513C718 517.411 714.411 521 710 521L452 521C447.589 521 444 517.411 444 513L444 489ZM722.59 945.221 736.528 959 425.472 959 439.41 945.221C452.191 932.587 459.521 915.033 459.521 897.062L459.521 537 702.479 537 702.479 897.062C702.479 915.033 709.81 932.587 722.59 945.221ZM774 789C774 787.897 774.897 787 776 787L788 787C789.102 787 790 787.897 790 789L790 830C790 831.103 789.102 832 788 832L776 832C774.897 832 774 831.103 774 830L774 789Z" fill="#FFFFFF" fill-rule="evenodd"/><path d="M671 906 490 906C485.582 906 482 909.582 482 914 482 918.418 485.582 922 490 922L671 922C675.418 922 679 918.418 679 914 679 909.582 675.418 906 671 906Z" fill="#FFFFFF" fill-rule="evenodd"/><path d="M531.998 795C534.045 795 536.091 794.219 537.653 792.658L659.658 670.653C662.781 667.529 662.781 662.466 659.658 659.342 656.534 656.219 651.471 656.219 648.347 659.342L526.342 781.347C523.219 784.471 523.219 789.534 526.342 792.658 527.904 794.219 529.951 795 531.998 795Z" fill="#FFFFFF" fill-rule="evenodd"/><path d="M540.055 723C542.117 723 544.178 722.224 545.752 720.673L602.641 664.563C605.786 661.459 605.786 656.43 602.641 653.326 599.494 650.225 594.395 650.225 591.248 653.326L534.359 709.437C531.214 712.54 531.214 717.57 534.359 720.673 535.932 722.224 537.993 723 540.055 723Z" fill="#FFFFFF" fill-rule="evenodd"/></g></svg>