<?xml version="1.0" ?><!DOCTYPE svg  PUBLIC '-//W3C//DTD SVG 1.1//EN'  'http://www.w3.org/Graphics/SVG/1.1/DTD/svg11.dtd'><svg enable-background="new 0 0 396.082 396.078" height="396.078px" id="Layer_1" version="1.1" viewBox="0 0 396.082 396.078" width="396.082px" xml:space="preserve" xmlns="http://www.w3.org/2000/svg" xmlns:xlink="http://www.w3.org/1999/xlink"><path d="M198.02,0C88.848,0.016,0.016,88.852,0,198.027c0.016,109.188,88.848,198.035,198.02,198.051l0,0  c109.195-0.016,198.047-88.863,198.063-198.055C396.066,88.852,307.215,0.016,198.02,0z M376.082,198.023  c-0.008,34.813-10.094,67.297-27.438,94.762l-90.664-157.02h106.828C372.078,155.156,376.078,176.129,376.082,198.023z   M355.84,115.766l-180.984,0.004l53.742-93.082C283.957,32.32,330.602,67.574,355.84,115.766z M198.02,20  c2.984,0,5.953,0.078,8.902,0.227l-90.949,157.531L61.688,83.734C94.371,44.813,143.348,20.008,198.02,20z M48.723,101.273  l91.496,158.469l-109.137,0.004v0.074C23.93,240.559,20.004,219.742,20,198.027C20.004,162.367,30.59,129.152,48.723,101.273z   M39.953,279.746l183.391-0.004l-54.238,93.945C112.824,364.438,65.371,328.707,39.953,279.746z M198.02,376.078  c-2.375,0-4.734-0.09-7.094-0.184l91.297-158.145l53.609,92.852C303.152,350.527,253.516,376.07,198.02,376.078z"/></svg>