<svg width="1225" height="319" xmlns="http://www.w3.org/2000/svg" xmlns:xlink="http://www.w3.org/1999/xlink" overflow="hidden"><defs><clipPath id="clip0"><rect x="27" y="21" width="1225" height="319"/></clipPath><clipPath id="clip1"><rect x="1002" y="163" width="50" height="50"/></clipPath><clipPath id="clip2"><rect x="1002" y="163" width="50" height="50"/></clipPath><clipPath id="clip3"><rect x="1002" y="163" width="50" height="50"/></clipPath></defs><g clip-path="url(#clip0)" transform="translate(-27 -21)"><path d="M172 268 172 104 320 268" fill="#F2F2F2" fill-rule="evenodd"/><path d="M0 0 0.000104987 360.43" stroke="#D9D9D9" stroke-width="0.666667" stroke-miterlimit="8" stroke-opacity="0.701961" fill="none" fill-rule="evenodd" transform="matrix(1.83697e-16 1 1 -1.83697e-16 477.5 92.5001)"/><path d="M0 0 0.000104987 360.43" stroke="#D9D9D9" stroke-width="0.666667" stroke-miterlimit="8" stroke-opacity="0.701961" fill="none" fill-rule="evenodd" transform="matrix(1.83697e-16 1 1 -1.83697e-16 477.5 129.5)"/><path d="M0 0 0.000104987 360.43" stroke="#D9D9D9" stroke-width="0.666667" stroke-miterlimit="8" stroke-opacity="0.701961" fill="none" fill-rule="evenodd" transform="matrix(1.83697e-16 1 1 -1.83697e-16 477.5 167.5)"/><path d="M0 0 0.000104987 360.43" stroke="#D9D9D9" stroke-width="0.666667" stroke-miterlimit="8" stroke-opacity="0.701961" fill="none" fill-rule="evenodd" transform="matrix(1.83697e-16 1 1 -1.83697e-16 477.5 205.5)"/><path d="M0 0 0.000104987 360.43" stroke="#D9D9D9" stroke-width="0.666667" stroke-miterlimit="8" stroke-opacity="0.701961" fill="none" fill-rule="evenodd" transform="matrix(1.83697e-16 1 1 -1.83697e-16 477.5 242.5)"/><path d="M0 0 0.000104987 360.43" stroke="#D9D9D9" stroke-width="0.666667" stroke-miterlimit="8" stroke-opacity="0.701961" fill="none" fill-rule="evenodd" transform="matrix(1.83697e-16 1 1 -1.83697e-16 65.5 92.5001)"/><path d="M0 0 0.000104987 360.43" stroke="#D9D9D9" stroke-width="0.666667" stroke-miterlimit="8" stroke-opacity="0.701961" fill="none" fill-rule="evenodd" transform="matrix(1.83697e-16 1 1 -1.83697e-16 65.5 129.5)"/><path d="M0 0 0.000104987 360.43" stroke="#D9D9D9" stroke-width="0.666667" stroke-miterlimit="8" stroke-opacity="0.701961" fill="none" fill-rule="evenodd" transform="matrix(1.83697e-16 1 1 -1.83697e-16 65.5 167.5)"/><path d="M0 0 0.000104987 360.43" stroke="#D9D9D9" stroke-width="0.666667" stroke-miterlimit="8" stroke-opacity="0.701961" fill="none" fill-rule="evenodd" transform="matrix(1.83697e-16 1 1 -1.83697e-16 65.5 205.5)"/><path d="M0 0 0.000104987 360.43" stroke="#D9D9D9" stroke-width="0.666667" stroke-miterlimit="8" stroke-opacity="0.701961" fill="none" fill-rule="evenodd" transform="matrix(1.83697e-16 1 1 -1.83697e-16 65.5 242.5)"/><path d="M0 0 0.000104987 360.43" stroke="#D9D9D9" stroke-width="0.666667" stroke-miterlimit="8" stroke-opacity="0.701961" fill="none" fill-rule="evenodd" transform="matrix(1.83697e-16 1 1 -1.83697e-16 890.5 92.5001)"/><path d="M0 0 0.000104987 360.43" stroke="#D9D9D9" stroke-width="0.666667" stroke-miterlimit="8" stroke-opacity="0.701961" fill="none" fill-rule="evenodd" transform="matrix(1.83697e-16 1 1 -1.83697e-16 890.5 129.5)"/><path d="M0 0 0.000104987 360.43" stroke="#D9D9D9" stroke-width="0.666667" stroke-miterlimit="8" stroke-opacity="0.701961" fill="none" fill-rule="evenodd" transform="matrix(1.83697e-16 1 1 -1.83697e-16 890.5 167.5)"/><path d="M0 0 0.000104987 360.43" stroke="#D9D9D9" stroke-width="0.666667" stroke-miterlimit="8" stroke-opacity="0.701961" fill="none" fill-rule="evenodd" transform="matrix(1.83697e-16 1 1 -1.83697e-16 890.5 205.5)"/><path d="M0 0 0.000104987 360.43" stroke="#D9D9D9" stroke-width="0.666667" stroke-miterlimit="8" stroke-opacity="0.701961" fill="none" fill-rule="evenodd" transform="matrix(1.83697e-16 1 1 -1.83697e-16 890.5 242.5)"/><path d="M515.5 57.5001 515.5 280.841" stroke="#D9D9D9" stroke-width="0.666667" stroke-miterlimit="8" stroke-opacity="0.701961" fill="none" fill-rule="evenodd"/><path d="M552.5 57.5001 552.5 280.841" stroke="#D9D9D9" stroke-width="0.666667" stroke-miterlimit="8" stroke-opacity="0.701961" fill="none" fill-rule="evenodd"/><path d="M590.5 57.5001 590.5 280.841" stroke="#D9D9D9" stroke-width="0.666667" stroke-miterlimit="8" stroke-opacity="0.701961" fill="none" fill-rule="evenodd"/><path d="M627.5 57.5001 627.5 280.841" stroke="#D9D9D9" stroke-width="0.666667" stroke-miterlimit="8" stroke-opacity="0.701961" fill="none" fill-rule="evenodd"/><path d="M665.5 57.5001 665.5 280.841" stroke="#D9D9D9" stroke-width="0.666667" stroke-miterlimit="8" stroke-opacity="0.701961" fill="none" fill-rule="evenodd"/><path d="M702.5 57.5001 702.5 280.841" stroke="#D9D9D9" stroke-width="0.666667" stroke-miterlimit="8" stroke-opacity="0.701961" fill="none" fill-rule="evenodd"/><path d="M740.5 57.5001 740.5 280.841" stroke="#D9D9D9" stroke-width="0.666667" stroke-miterlimit="8" stroke-opacity="0.701961" fill="none" fill-rule="evenodd"/><path d="M777.5 57.5001 777.5 280.841" stroke="#D9D9D9" stroke-width="0.666667" stroke-miterlimit="8" stroke-opacity="0.701961" fill="none" fill-rule="evenodd"/><path d="M815.5 57.5001 815.5 280.841" stroke="#D9D9D9" stroke-width="0.666667" stroke-miterlimit="8" stroke-opacity="0.701961" fill="none" fill-rule="evenodd"/><path d="M102.5 57.5001 102.5 280.841" stroke="#D9D9D9" stroke-width="0.666667" stroke-miterlimit="8" stroke-opacity="0.701961" fill="none" fill-rule="evenodd"/><path d="M140.5 57.5001 140.5 280.841" stroke="#D9D9D9" stroke-width="0.666667" stroke-miterlimit="8" stroke-opacity="0.701961" fill="none" fill-rule="evenodd"/><path d="M177.5 57.5001 177.5 280.841" stroke="#D9D9D9" stroke-width="0.666667" stroke-miterlimit="8" stroke-opacity="0.701961" fill="none" fill-rule="evenodd"/><path d="M215.5 57.5001 215.5 280.841" stroke="#D9D9D9" stroke-width="0.666667" stroke-miterlimit="8" stroke-opacity="0.701961" fill="none" fill-rule="evenodd"/><path d="M252.5 57.5001 252.5 280.841" stroke="#D9D9D9" stroke-width="0.666667" stroke-miterlimit="8" stroke-opacity="0.701961" fill="none" fill-rule="evenodd"/><path d="M290.5 57.5001 290.5 280.841" stroke="#D9D9D9" stroke-width="0.666667" stroke-miterlimit="8" stroke-opacity="0.701961" fill="none" fill-rule="evenodd"/><path d="M327.5 57.5001 327.5 280.841" stroke="#D9D9D9" stroke-width="0.666667" stroke-miterlimit="8" stroke-opacity="0.701961" fill="none" fill-rule="evenodd"/><path d="M365.5 57.5001 365.5 280.841" stroke="#D9D9D9" stroke-width="0.666667" stroke-miterlimit="8" stroke-opacity="0.701961" fill="none" fill-rule="evenodd"/><path d="M402.5 57.5001 402.5 280.841" stroke="#D9D9D9" stroke-width="0.666667" stroke-miterlimit="8" stroke-opacity="0.701961" fill="none" fill-rule="evenodd"/><path d="M927.5 57.5001 927.5 280.841" stroke="#D9D9D9" stroke-width="0.666667" stroke-miterlimit="8" stroke-opacity="0.701961" fill="none" fill-rule="evenodd"/><path d="M965.5 57.5001 965.5 280.841" stroke="#D9D9D9" stroke-width="0.666667" stroke-miterlimit="8" stroke-opacity="0.701961" fill="none" fill-rule="evenodd"/><path d="M1002.5 57.5001 1002.5 280.841" stroke="#D9D9D9" stroke-width="0.666667" stroke-miterlimit="8" stroke-opacity="0.701961" fill="none" fill-rule="evenodd"/><path d="M1040.5 57.5001 1040.5 280.841" stroke="#D9D9D9" stroke-width="0.666667" stroke-miterlimit="8" stroke-opacity="0.701961" fill="none" fill-rule="evenodd"/><path d="M1077.5 57.5001 1077.5 280.841" stroke="#D9D9D9" stroke-width="0.666667" stroke-miterlimit="8" stroke-opacity="0.701961" fill="none" fill-rule="evenodd"/><path d="M1115.5 57.5001 1115.5 280.841" stroke="#D9D9D9" stroke-width="0.666667" stroke-miterlimit="8" stroke-opacity="0.701961" fill="none" fill-rule="evenodd"/><path d="M1152.5 57.5001 1152.5 280.841" stroke="#D9D9D9" stroke-width="0.666667" stroke-miterlimit="8" stroke-opacity="0.701961" fill="none" fill-rule="evenodd"/><path d="M1190.5 57.5001 1190.5 280.841" stroke="#D9D9D9" stroke-width="0.666667" stroke-miterlimit="8" stroke-opacity="0.701961" fill="none" fill-rule="evenodd"/><path d="M1227.5 57.5001 1227.5 280.841" stroke="#D9D9D9" stroke-width="0.666667" stroke-miterlimit="8" stroke-opacity="0.701961" fill="none" fill-rule="evenodd"/><path d="M67.1666 43.1667 214.1 43.1666 214.1 45.8333 67.1666 45.8334ZM68.5001 48.5 60.5001 44.5001 68.5001 40.5Z" fill="#BFBFBF"/><path d="M1.33333-2.9163e-06 1.33342 41.3333-1.33324 41.3333-1.33333 2.9163e-06ZM4.00009 40 0.000104987 48-3.99991 40Z" fill="#BFBFBF" transform="matrix(1 0 0 -1 48.5001 104.5)"/><rect x="510" y="61" width="67" height="26" fill="#75CDBC"/><rect x="542" y="99" width="68" height="26" fill="#75CDBC"/><rect x="575" y="136" width="67" height="26" fill="#75CDBC"/><rect x="607" y="174" width="68" height="26" fill="#75CDBC"/><rect x="640" y="212" width="67" height="26" fill="#75CDBC"/><rect x="672" y="249" width="68" height="26" fill="#75CDBC"/><rect x="579" y="61" width="19" height="26" fill="#6BBEE8" fill-opacity="0.901961"/><rect x="612" y="99" width="18" height="26" fill="#6BBEE8" fill-opacity="0.901961"/><rect x="644" y="136" width="19" height="26" fill="#6BBEE8" fill-opacity="0.901961"/><rect x="677" y="174" width="18" height="26" fill="#6BBEE8" fill-opacity="0.901961"/><rect x="709" y="212" width="18" height="26" fill="#6BBEE8" fill-opacity="0.901961"/><rect x="742" y="249" width="18" height="26" fill="#6BBEE8" fill-opacity="0.901961"/><rect x="97" y="61" width="68" height="26" fill="#75CDBC"/><rect x="80" y="61" width="15" height="26" fill="#F7A395"/><rect x="97" y="99" width="68" height="26" fill="#75CDBC"/><rect x="80" y="99" width="15" height="26" fill="#F7A395"/><rect x="97" y="136" width="68" height="26" fill="#75CDBC"/><rect x="80" y="136" width="15" height="26" fill="#F7A395"/><rect x="97" y="174" width="68" height="26" fill="#75CDBC"/><rect x="80" y="174" width="15" height="26" fill="#F7A395"/><rect x="97" y="212" width="68" height="26" fill="#75CDBC"/><rect x="80" y="212" width="15" height="26" fill="#F7A395"/><rect x="97" y="249" width="68" height="26" fill="#75CDBC"/><rect x="80" y="249" width="15" height="26" fill="#F7A395"/><rect x="993" y="61" width="18" height="26" fill="#6BBEE8" fill-opacity="0.901961"/><rect x="1026" y="99" width="18" height="26" fill="#6BBEE8" fill-opacity="0.901961"/><rect x="1057" y="136" width="19" height="26" fill="#6BBEE8" fill-opacity="0.901961"/><rect x="1091" y="174" width="18" height="26" fill="#6BBEE8" fill-opacity="0.901961"/><rect x="1123" y="212" width="19" height="26" fill="#6BBEE8" fill-opacity="0.901961"/><rect x="1156" y="249" width="18" height="26" fill="#6BBEE8" fill-opacity="0.901961"/><text font-family="Arial,Arial_MSFontService,sans-serif" font-weight="400" font-size="21" transform="translate(510.786 221)">reset</text><text font-family="Arial,Arial_MSFontService,sans-serif" font-weight="700" font-size="27" transform="translate(182.738 317)">a</text><text font-family="Arial,Arial_MSFontService,sans-serif" font-weight="400" font-size="19" transform="translate(203.571 317)">global</text><text font-family="Arial,Arial_MSFontService,sans-serif" font-weight="400" font-size="19" transform="translate(258.405 317)">shutter</text><text font-family="Arial,Arial_MSFontService,sans-serif" font-weight="700" font-size="27" transform="translate(607.527 317)">b</text><text font-family="Arial,Arial_MSFontService,sans-serif" font-weight="400" font-size="19" transform="translate(629.86 317)">rolling shutter</text><text font-family="Arial,Arial_MSFontService,sans-serif" font-weight="700" font-size="27" transform="translate(934.56 317)">c</text><text font-family="Arial,Arial_MSFontService,sans-serif" font-weight="400" font-size="19" transform="translate(955.394 317)">rolling shutter with global reset</text><rect x="922" y="61" width="68" height="26" fill="#75CDBC"/><rect x="922" y="99" width="101" height="26" fill="#75CDBC"/><rect x="922" y="136" width="133" height="26" fill="#75CDBC"/><rect x="922" y="174" width="167" height="26" fill="#75CDBC"/><rect x="922" y="212" width="199" height="26" fill="#75CDBC"/><rect x="922" y="249" width="232" height="26" fill="#75CDBC"/><rect x="905" y="61" width="15" height="26" fill="#F7A395"/><rect x="905" y="99" width="15" height="26" fill="#F7A395"/><rect x="905" y="136" width="15" height="26" fill="#F7A395"/><rect x="905" y="174" width="15" height="26" fill="#F7A395"/><rect x="905" y="212" width="15" height="26" fill="#F7A395"/><rect x="905" y="249" width="15" height="26" fill="#F7A395"/><rect x="526" y="99" width="14" height="26" fill="#F7A395"/><rect x="558" y="137" width="15" height="25" fill="#F7A395"/><rect x="591" y="174" width="14" height="26" fill="#F7A395"/><rect x="623" y="212" width="15" height="26" fill="#F7A395"/><rect x="655" y="250" width="15" height="26" fill="#F7A395"/><rect x="493" y="61" width="15" height="26" fill="#F7A395"/><path d="M477 57 477 280.341" stroke="#000000" stroke-width="1.66667" stroke-miterlimit="8" fill="none" fill-rule="evenodd"/><path d="M65 57 65.0001 280.341" stroke="#000000" stroke-width="1.66667" stroke-miterlimit="8" fill="none" fill-rule="evenodd"/><path d="M890 57 890 280.341" stroke="#000000" stroke-width="1.66667" stroke-miterlimit="8" fill="none" fill-rule="evenodd"/><path d="M0 0 0.000104987 360.43" stroke="#000000" stroke-width="1.66667" stroke-miterlimit="8" fill="none" fill-rule="evenodd" transform="matrix(1.83697e-16 1 1 -1.83697e-16 477 280)"/><path d="M0 0 0.000104987 360.43" stroke="#000000" stroke-width="1.66667" stroke-miterlimit="8" fill="none" fill-rule="evenodd" transform="matrix(1.83697e-16 1 1 -1.83697e-16 64.9999 280)"/><path d="M0 0 0.000104987 360.43" stroke="#000000" stroke-width="1.66667" stroke-miterlimit="8" fill="none" fill-rule="evenodd" transform="matrix(1.83697e-16 1 1 -1.83697e-16 890 280)"/><text font-family="Arial,Arial_MSFontService,sans-serif" font-weight="400" font-size="21" transform="translate(724.704 122)">readout</text><text font-family="Arial,Arial_MSFontService,sans-serif" font-weight="400" font-size="21" transform="translate(639.483 99)">exposure</text><rect x="168" y="61" width="18" height="26" fill="#6BBEE8" fill-opacity="0.901961"/><rect x="200" y="99" width="19" height="26" fill="#6BBEE8" fill-opacity="0.901961"/><rect x="233" y="136" width="18" height="26" fill="#6BBEE8" fill-opacity="0.901961"/><rect x="265" y="174" width="19" height="26" fill="#6BBEE8" fill-opacity="0.901961"/><rect x="298" y="212" width="18" height="26" fill="#6BBEE8" fill-opacity="0.901961"/><rect x="330" y="249" width="19" height="26" fill="#6BBEE8" fill-opacity="0.901961"/><path d="M553.5 72.8334 553.501 72.8334C553.87 72.8334 554.168 73.1319 554.168 73.5001 554.168 73.8682 553.87 74.1667 553.501 74.1667L553.5 74.1667C553.132 74.1667 552.833 73.8682 552.833 73.5001 552.833 73.1319 553.132 72.8334 553.5 72.8334ZM556.168 72.8334 556.169 72.8334C556.538 72.8334 556.836 73.1319 556.836 73.5001 556.836 73.8682 556.538 74.1667 556.169 74.1667L556.168 74.1667C555.8 74.1667 555.501 73.8682 555.501 73.5001 555.501 73.1319 555.8 72.8334 556.168 72.8334ZM558.836 72.8334 558.837 72.8334C559.206 72.8334 559.504 73.1319 559.504 73.5001 559.504 73.8682 559.206 74.1667 558.837 74.1667L558.836 74.1667C558.468 74.1667 558.169 73.8682 558.169 73.5001 558.169 73.1319 558.468 72.8334 558.836 72.8334ZM561.504 72.8334 561.505 72.8334C561.874 72.8334 562.172 73.1319 562.172 73.5001 562.172 73.8682 561.874 74.1667 561.505 74.1667L561.504 74.1667C561.136 74.1667 560.837 73.8682 560.837 73.5001 560.837 73.1319 561.136 72.8334 561.504 72.8334ZM564.172 72.8334 564.173 72.8334C564.542 72.8334 564.84 73.1319 564.84 73.5001 564.84 73.8682 564.542 74.1667 564.173 74.1667L564.172 74.1667C563.804 74.1667 563.505 73.8682 563.505 73.5001 563.505 73.1319 563.804 72.8334 564.172 72.8334ZM566.84 72.8334 566.841 72.8334C567.21 72.8334 567.508 73.1319 567.508 73.5001 567.508 73.8682 567.21 74.1667 566.841 74.1667L566.84 74.1667C566.472 74.1667 566.173 73.8682 566.173 73.5001 566.173 73.1319 566.472 72.8334 566.84 72.8334ZM569.508 72.8334 569.509 72.8334C569.878 72.8334 570.176 73.1319 570.176 73.5001 570.176 73.8682 569.878 74.1667 569.509 74.1667L569.508 74.1667C569.14 74.1667 568.841 73.8682 568.841 73.5001 568.841 73.1319 569.14 72.8334 569.508 72.8334ZM572.176 72.8334 572.177 72.8334C572.546 72.8334 572.844 73.1319 572.844 73.5001 572.844 73.8682 572.546 74.1667 572.177 74.1667L572.176 74.1667C571.808 74.1667 571.509 73.8682 571.509 73.5001 571.509 73.1319 571.808 72.8334 572.176 72.8334ZM574.844 72.8334 574.845 72.8334C575.214 72.8334 575.512 73.1319 575.512 73.5001 575.512 73.8682 575.214 74.1667 574.845 74.1667L574.844 74.1667C574.476 74.1667 574.177 73.8682 574.177 73.5001 574.177 73.1319 574.476 72.8334 574.844 72.8334ZM577.512 72.8334 577.513 72.8334C577.882 72.8334 578.18 73.1319 578.18 73.5001 578.18 73.8682 577.882 74.1667 577.513 74.1667L577.512 74.1667C577.144 74.1667 576.845 73.8682 576.845 73.5001 576.845 73.1319 577.144 72.8334 577.512 72.8334ZM580.18 72.8334 580.181 72.8334C580.55 72.8334 580.848 73.1319 580.848 73.5001 580.848 73.8682 580.55 74.1667 580.181 74.1667L580.18 74.1667C579.812 74.1667 579.513 73.8682 579.513 73.5001 579.513 73.1319 579.812 72.8334 580.18 72.8334ZM582.848 72.8334 582.849 72.8334C583.218 72.8334 583.516 73.1319 583.516 73.5001 583.516 73.8682 583.218 74.1667 582.849 74.1667L582.848 74.1667C582.48 74.1667 582.181 73.8682 582.181 73.5001 582.181 73.1319 582.48 72.8334 582.848 72.8334ZM585.516 72.8334 585.517 72.8334C585.886 72.8334 586.184 73.1319 586.184 73.5001 586.184 73.8682 585.886 74.1667 585.517 74.1667L585.516 74.1667C585.148 74.1667 584.849 73.8682 584.849 73.5001 584.849 73.1319 585.148 72.8334 585.516 72.8334ZM588.184 72.8334 588.185 72.8334C588.554 72.8334 588.852 73.1319 588.852 73.5001 588.852 73.8682 588.554 74.1667 588.185 74.1667L588.184 74.1667C587.816 74.1667 587.517 73.8682 587.517 73.5001 587.517 73.1319 587.816 72.8334 588.184 72.8334ZM590.852 72.8334 590.853 72.8334C591.222 72.8334 591.52 73.1319 591.52 73.5001 591.52 73.8682 591.222 74.1667 590.853 74.1667L590.852 74.1667C590.484 74.1667 590.185 73.8682 590.185 73.5001 590.185 73.1319 590.484 72.8334 590.852 72.8334ZM593.52 72.8334 593.521 72.8334C593.89 72.8334 594.188 73.1319 594.188 73.5001 594.188 73.8682 593.89 74.1667 593.521 74.1667L593.52 74.1667C593.152 74.1667 592.853 73.8682 592.853 73.5001 592.853 73.1319 593.152 72.8334 593.52 72.8334ZM596.188 72.8334 596.189 72.8334C596.558 72.8334 596.856 73.1319 596.856 73.5001 596.856 73.8682 596.558 74.1667 596.189 74.1667L596.188 74.1667C595.82 74.1667 595.521 73.8682 595.521 73.5001 595.521 73.1319 595.82 72.8334 596.188 72.8334ZM598.856 72.8334 598.857 72.8334C599.226 72.8334 599.524 73.1319 599.524 73.5001 599.524 73.8682 599.226 74.1667 598.857 74.1667L598.856 74.1667C598.488 74.1667 598.189 73.8682 598.189 73.5001 598.189 73.1319 598.488 72.8334 598.856 72.8334ZM601.524 72.8334 601.525 72.8334C601.894 72.8334 602.192 73.1319 602.192 73.5001 602.192 73.8682 601.894 74.1667 601.525 74.1667L601.524 74.1667C601.156 74.1667 600.857 73.8682 600.857 73.5001 600.857 73.1319 601.156 72.8334 601.524 72.8334ZM604.192 72.8334 604.193 72.8334C604.562 72.8334 604.86 73.1319 604.86 73.5001 604.86 73.8682 604.562 74.1667 604.193 74.1667L604.192 74.1667C603.824 74.1667 603.525 73.8682 603.525 73.5001 603.525 73.1319 603.824 72.8334 604.192 72.8334ZM606.86 72.8334 606.861 72.8334C607.23 72.8334 607.528 73.1319 607.528 73.5001 607.528 73.8682 607.23 74.1667 606.861 74.1667L606.86 74.1667C606.492 74.1667 606.193 73.8682 606.193 73.5001 606.193 73.1319 606.492 72.8334 606.86 72.8334ZM609.528 72.8334 609.529 72.8334C609.898 72.8334 610.196 73.1319 610.196 73.5001 610.196 73.8682 609.898 74.1667 609.529 74.1667L609.528 74.1667C609.16 74.1667 608.861 73.8682 608.861 73.5001 608.861 73.1319 609.16 72.8334 609.528 72.8334ZM612.196 72.8334 612.197 72.8334C612.566 72.8334 612.864 73.1319 612.864 73.5001 612.864 73.8682 612.566 74.1667 612.197 74.1667L612.196 74.1667C611.828 74.1667 611.529 73.8682 611.529 73.5001 611.529 73.1319 611.828 72.8334 612.196 72.8334ZM614.864 72.8334 614.865 72.8334C615.234 72.8334 615.532 73.1319 615.532 73.5001 615.532 73.8682 615.234 74.1667 614.865 74.1667L614.864 74.1667C614.496 74.1667 614.197 73.8682 614.197 73.5001 614.197 73.1319 614.496 72.8334 614.864 72.8334ZM617.532 72.8334 617.533 72.8334C617.902 72.8334 618.2 73.1319 618.2 73.5001 618.2 73.8682 617.902 74.1667 617.533 74.1667L617.532 74.1667C617.164 74.1667 616.865 73.8682 616.865 73.5001 616.865 73.1319 617.164 72.8334 617.532 72.8334ZM620.2 72.8334 620.201 72.8334C620.57 72.8334 620.868 73.1319 620.868 73.5001 620.868 73.8682 620.57 74.1667 620.201 74.1667L620.2 74.1667C619.832 74.1667 619.533 73.8682 619.533 73.5001 619.533 73.1319 619.832 72.8334 620.2 72.8334ZM622.92 74.0396 622.921 74.0406C623.182 74.3007 623.182 74.7228 622.922 74.9834 622.662 75.244 622.24 75.2445 621.979 74.9844L621.978 74.9835C621.718 74.7234 621.717 74.3013 621.977 74.0407 622.237 73.78 622.659 73.7796 622.92 74.0396ZM624.804 75.9414 624.805 75.9424C625.062 76.2059 625.057 76.628 624.793 76.8851 624.53 77.1423 624.108 77.1371 623.85 76.8736L623.849 76.8727C623.592 76.6092 623.597 76.1871 623.861 75.9299 624.124 75.6728 624.547 75.6779 624.804 75.9414ZM626.675 77.867 626.676 77.868C626.926 78.138 626.91 78.5598 626.64 78.8101 626.37 79.0605 625.948 79.0446 625.698 78.7746L625.697 78.7736C625.447 78.5037 625.463 78.0819 625.733 77.8315 626.003 77.5811 626.424 77.597 626.675 77.867ZM628.491 79.8213 628.492 79.8223C628.742 80.0922 628.727 80.5141 628.457 80.7644 628.187 81.0148 627.765 80.9989 627.514 80.7289L627.513 80.7279C627.263 80.4579 627.279 80.0361 627.549 79.7858 627.819 79.5354 628.241 79.5513 628.491 79.8213ZM630.308 81.7757 630.308 81.7766C630.559 82.0467 630.543 82.4685 630.273 82.7188 630.003 82.9691 629.581 82.9531 629.331 82.6831L629.33 82.6821C629.079 82.4121 629.095 81.9903 629.365 81.74 629.635 81.4897 630.057 81.5056 630.308 81.7757ZM632.123 83.7365 632.124 83.7375C632.372 84.0091 632.354 84.4308 632.082 84.6794 631.811 84.928 631.389 84.9095 631.14 84.6379L631.139 84.6369C630.891 84.3654 630.909 83.9437 631.181 83.695 631.452 83.4464 631.874 83.465 632.123 83.7365ZM633.928 85.7073 633.929 85.7083C634.176 85.9817 634.154 86.4033 633.881 86.6499 633.607 86.8965 633.186 86.8748 632.939 86.6015L632.938 86.6005C632.692 86.3271 632.713 85.9055 632.987 85.6589 633.26 85.4123 633.682 85.434 633.928 85.7073ZM635.714 87.6656 635.715 87.6666C635.969 87.9334 635.958 88.3554 635.692 88.6091 635.425 88.8628 635.003 88.8522 634.749 88.5853L634.748 88.5844C634.494 88.3175 634.505 87.8955 634.772 87.6418 635.039 87.3882 635.461 87.3988 635.714 87.6656ZM553.5 77.5001C551.291 77.5001 549.5 75.7092 549.5 73.5001 549.5 71.2909 551.291 69.5001 553.5 69.5001 555.709 69.5001 557.5 71.2909 557.5 73.5001 557.5 75.7092 555.709 77.5001 553.5 77.5001Z" fill="#44546A"/><path d="M0-0.666667 0.00133333-0.666667C0.369523-0.666667 0.668-0.36819 0.668 0 0.668 0.36819 0.369523 0.666667 0.00133333 0.666667L0 0.666667C-0.36819 0.666667-0.666667 0.36819-0.666667 0-0.666667-0.36819-0.36819-0.666667 0-0.666667ZM2.668-0.666667 2.66933-0.666667C3.03752-0.666667 3.336-0.36819 3.336 0 3.336 0.36819 3.03752 0.666667 2.66933 0.666667L2.668 0.666667C2.29981 0.666667 2.00133 0.36819 2.00133 0 2.00133-0.36819 2.29981-0.666667 2.668-0.666667ZM5.336-0.666667 5.33733-0.666667C5.70552-0.666667 6.004-0.36819 6.004 0 6.004 0.36819 5.70552 0.666667 5.33733 0.666667L5.336 0.666667C4.96781 0.666667 4.66933 0.36819 4.66933 0 4.66933-0.36819 4.96781-0.666667 5.336-0.666667ZM8.004-0.666667 8.00533-0.666667C8.37352-0.666667 8.672-0.36819 8.672 0 8.672 0.36819 8.37352 0.666667 8.00533 0.666667L8.004 0.666667C7.63581 0.666667 7.33733 0.36819 7.33733 0 7.33733-0.36819 7.63581-0.666667 8.004-0.666667ZM10.672-0.666667 10.6733-0.666667C11.0415-0.666667 11.34-0.36819 11.34 0 11.34 0.36819 11.0415 0.666667 10.6733 0.666667L10.672 0.666667C10.3038 0.666667 10.0053 0.36819 10.0053 0 10.0053-0.36819 10.3038-0.666667 10.672-0.666667ZM13.34-0.666667 13.3413-0.666667C13.7095-0.666667 14.008-0.36819 14.008 0 14.008 0.36819 13.7095 0.666667 13.3413 0.666667L13.34 0.666667C12.9718 0.666667 12.6733 0.36819 12.6733 0 12.6733-0.36819 12.9718-0.666667 13.34-0.666667ZM16.008-0.666667 16.0093-0.666667C16.3775-0.666667 16.676-0.36819 16.676 0 16.676 0.36819 16.3775 0.666667 16.0093 0.666667L16.008 0.666667C15.6398 0.666667 15.3413 0.36819 15.3413 0 15.3413-0.36819 15.6398-0.666667 16.008-0.666667ZM18.676-0.666667 18.6773-0.666667C19.0455-0.666667 19.344-0.36819 19.344 0 19.344 0.36819 19.0455 0.666667 18.6773 0.666667L18.676 0.666667C18.3078 0.666667 18.0093 0.36819 18.0093 0 18.0093-0.36819 18.3078-0.666667 18.676-0.666667ZM21.344-0.666667 21.3453-0.666667C21.7135-0.666667 22.012-0.36819 22.012 0 22.012 0.36819 21.7135 0.666667 21.3453 0.666667L21.344 0.666667C20.9758 0.666667 20.6773 0.36819 20.6773 0 20.6773-0.36819 20.9758-0.666667 21.344-0.666667ZM24.012-0.666667 24.0133-0.666667C24.3815-0.666667 24.68-0.36819 24.68 0 24.68 0.36819 24.3815 0.666667 24.0133 0.666667L24.012 0.666667C23.6438 0.666667 23.3453 0.36819 23.3453 0 23.3453-0.36819 23.6438-0.666667 24.012-0.666667ZM26.68-0.666667 26.6813-0.666667C27.0495-0.666667 27.348-0.36819 27.348 0 27.348 0.36819 27.0495 0.666667 26.6813 0.666667L26.68 0.666667C26.3118 0.666667 26.0133 0.36819 26.0133 0 26.0133-0.36819 26.3118-0.666667 26.68-0.666667ZM29.348-0.666667 29.3493-0.666667C29.7175-0.666667 30.016-0.36819 30.016 0 30.016 0.36819 29.7175 0.666667 29.3493 0.666667L29.348 0.666667C28.9798 0.666667 28.6813 0.36819 28.6813 0 28.6813-0.36819 28.9798-0.666667 29.348-0.666667ZM32.016-0.666667 32.0173-0.666667C32.3855-0.666667 32.684-0.36819 32.684 0 32.684 0.36819 32.3855 0.666667 32.0173 0.666667L32.016 0.666667C31.6478 0.666667 31.3493 0.36819 31.3493 0 31.3493-0.36819 31.6478-0.666667 32.016-0.666667ZM34.684-0.666667 34.6853-0.666667C35.0535-0.666667 35.352-0.36819 35.352 0 35.352 0.36819 35.0535 0.666667 34.6853 0.666667L34.684 0.666667C34.3158 0.666667 34.0173 0.36819 34.0173 0 34.0173-0.36819 34.3158-0.666667 34.684-0.666667ZM37.352-0.666667 37.3533-0.666667C37.7215-0.666667 38.02-0.36819 38.02 0 38.02 0.36819 37.7215 0.666667 37.3533 0.666667L37.352 0.666667C36.9838 0.666667 36.6853 0.36819 36.6853 0 36.6853-0.36819 36.9838-0.666667 37.352-0.666667ZM40.02-0.666667 40.0213-0.666667C40.3895-0.666667 40.688-0.36819 40.688 0 40.688 0.36819 40.3895 0.666667 40.0213 0.666667L40.02 0.666667C39.6518 0.666667 39.3533 0.36819 39.3533 0 39.3533-0.36819 39.6518-0.666667 40.02-0.666667ZM42.688-0.666667 42.6893-0.666667C43.0575-0.666667 43.356-0.36819 43.356 0 43.356 0.36819 43.0575 0.666667 42.6893 0.666667L42.688 0.666667C42.3198 0.666667 42.0213 0.36819 42.0213 0 42.0213-0.36819 42.3198-0.666667 42.688-0.666667ZM45.356-0.666667 45.3573-0.666667C45.7255-0.666667 46.024-0.36819 46.024 0 46.024 0.36819 45.7255 0.666667 45.3573 0.666667L45.356 0.666667C44.9878 0.666667 44.6893 0.36819 44.6893 0 44.6893-0.36819 44.9878-0.666667 45.356-0.666667ZM48.024-0.666667 48.0253-0.666667C48.3935-0.666667 48.692-0.36819 48.692 0 48.692 0.36819 48.3935 0.666667 48.0253 0.666667L48.024 0.666667C47.6558 0.666667 47.3573 0.36819 47.3573 0 47.3573-0.36819 47.6558-0.666667 48.024-0.666667ZM50.692-0.666667 50.6933-0.666667C51.0615-0.666667 51.36-0.36819 51.36 0 51.36 0.36819 51.0615 0.666667 50.6933 0.666667L50.692 0.666667C50.3238 0.666667 50.0253 0.36819 50.0253 0 50.0253-0.36819 50.3238-0.666667 50.692-0.666667ZM53.36-0.666667 53.3613-0.666667C53.7295-0.666667 54.028-0.36819 54.028 0 54.028 0.36819 53.7295 0.666667 53.3613 0.666667L53.36 0.666667C52.9918 0.666667 52.6933 0.36819 52.6933 0 52.6933-0.36819 52.9918-0.666667 53.36-0.666667ZM56.028-0.666667 56.0293-0.666667C56.3975-0.666667 56.696-0.36819 56.696 0 56.696 0.36819 56.3975 0.666667 56.0293 0.666667L56.028 0.666667C55.6598 0.666667 55.3613 0.36819 55.3613 0 55.3613-0.36819 55.6598-0.666667 56.028-0.666667ZM58.696-0.666667 58.6973-0.666667C59.0655-0.666667 59.364-0.36819 59.364 0 59.364 0.36819 59.0655 0.666667 58.6973 0.666667L58.696 0.666667C58.3278 0.666667 58.0293 0.36819 58.0293 0 58.0293-0.36819 58.3278-0.666667 58.696-0.666667ZM61.364-0.666667 61.3653-0.666667C61.7335-0.666667 62.032-0.36819 62.032 0 62.032 0.36819 61.7335 0.666667 61.3653 0.666667L61.364 0.666667C60.9958 0.666667 60.6973 0.36819 60.6973 0 60.6973-0.36819 60.9958-0.666667 61.364-0.666667ZM64.032-0.666667 64.0333-0.666667C64.4015-0.666667 64.7-0.36819 64.7 0 64.7 0.36819 64.4015 0.666667 64.0333 0.666667L64.032 0.666667C63.6638 0.666667 63.3653 0.36819 63.3653 0 63.3653-0.36819 63.6638-0.666667 64.032-0.666667ZM66.7-0.666667 66.7013-0.666667C67.0695-0.666667 67.368-0.36819 67.368 0 67.368 0.36819 67.0695 0.666667 66.7013 0.666667L66.7 0.666667C66.3318 0.666667 66.0333 0.36819 66.0333 0 66.0333-0.36819 66.3318-0.666667 66.7-0.666667ZM69.406 0.57784 69.4069 0.578807C69.6605 0.845696 69.6498 1.26767 69.3829 1.52131 69.116 1.77495 68.6941 1.76421 68.4404 1.49732L68.4395 1.49636C68.1859 1.22947 68.1966 0.807493 68.4635 0.553852 68.7304 0.300211 69.1523 0.310951 69.406 0.57784ZM71.2438 2.53516 71.2447 2.53615C71.4914 2.80943 71.4699 3.23099 71.1966 3.47774 70.9233 3.72448 70.5018 3.70297 70.255 3.42969L70.2542 3.4287C70.0074 3.15542 70.0289 2.73386 70.3022 2.48712 70.5755 2.24037 70.997 2.26188 71.2438 2.53516ZM73.0348 4.5127 73.0356 4.51368C73.2824 4.78696 73.2609 5.20852 72.9876 5.45527 72.7143 5.70201 72.2928 5.6805 72.046 5.40722L72.0451 5.40624C71.7984 5.13296 71.8199 4.7114 72.0932 4.46465 72.3664 4.21791 72.788 4.23942 73.0348 4.5127ZM74.8157 6.50725 74.8166 6.50824C75.0609 6.78373 75.0356 7.20508 74.7601 7.44936 74.4846 7.69363 74.0632 7.66833 73.819 7.39284L73.8181 7.39184C73.5738 7.11635 73.5991 6.695 73.8746 6.45073 74.1501 6.20645 74.5714 6.23176 74.8157 6.50725ZM76.582 8.50684 76.5829 8.50784C76.8272 8.78333 76.8019 9.20468 76.5264 9.44895 76.2509 9.69323 75.8295 9.66792 75.5853 9.39244L75.5844 9.39144C75.3401 9.11595 75.3654 8.6946 75.6409 8.45032 75.9164 8.20605 76.3377 8.23135 76.582 8.50684ZM78.3352 10.5334 78.3361 10.5344C78.5755 10.8141 78.5428 11.235 78.263 11.4744 77.9833 11.7137 77.5624 11.681 77.3231 11.4013L77.3222 11.4003C77.0828 11.1205 77.1155 10.6997 77.3952 10.4603 77.675 10.2209 78.0958 10.2536 78.3352 10.5334ZM80.0715 12.5591 80.0724 12.5601C80.3118 12.8398 80.2791 13.2607 79.9993 13.5001 79.7196 13.7394 79.2988 13.7067 79.0594 13.427L79.0585 13.426C78.8191 13.1462 78.8518 12.7254 79.1316 12.486 79.4113 12.2466 79.8321 12.2793 80.0715 12.5591ZM81.8 14.5975 81.8008 14.5986C82.0383 14.88 82.0026 15.3006 81.7212 15.538 81.4398 15.7755 81.0192 15.7398 80.7818 15.4584L80.7809 15.4574C80.5435 15.176 80.5791 14.7554 80.8605 14.518 81.1419 14.2805 81.5625 14.3162 81.8 14.5975ZM83.5218 16.6356 83.5226 16.6366C83.7601 16.918 83.7244 17.3386 83.443 17.5761 83.1616 17.8135 82.741 17.7779 82.5036 17.4965L82.5027 17.4955C82.2653 17.2141 82.3009 16.7935 82.5823 16.556 82.8637 16.3186 83.2843 16.3542 83.5218 16.6356ZM85.2516 18.6614 85.2525 18.6624C85.4917 18.9424 85.4586 19.3632 85.1787 19.6024 84.8987 19.8415 84.4779 19.8085 84.2388 19.5285L84.2379 19.5275C83.9987 19.2476 84.0318 18.8268 84.3117 18.5876 84.5916 18.3484 85.0125 18.3815 85.2516 18.6614ZM86.9743 20.7147 86.9751 20.7157C87.2091 21 87.1683 21.4201 86.884 21.6541 86.5997 21.8881 86.1796 21.8473 85.9456 21.563L85.9447 21.562C85.7108 21.2777 85.7516 20.8575 86.0359 20.6236 86.3202 20.3896 86.7403 20.4304 86.9743 20.7147ZM0 4C-2.20914 4-4 2.20914-4 0-4-2.20914-2.20914-4 0-4 2.20914-4 4-2.20914 4 0 4 2.20914 2.20914 4 0 4Z" fill="#44546A" transform="matrix(1 0 0 -1 655.5 150.5)"/><path d="M0-0.666667 0.00133333-0.666667C0.369523-0.666667 0.668-0.36819 0.668 0 0.668 0.36819 0.369523 0.666667 0.00133333 0.666667L0 0.666667C-0.36819 0.666667-0.666667 0.36819-0.666667 0-0.666667-0.36819-0.36819-0.666667 0-0.666667ZM2.668-0.666667 2.66933-0.666667C3.03752-0.666667 3.336-0.36819 3.336 0 3.336 0.36819 3.03752 0.666667 2.66933 0.666667L2.668 0.666667C2.29981 0.666667 2.00133 0.36819 2.00133 0 2.00133-0.36819 2.29981-0.666667 2.668-0.666667ZM5.336-0.666667 5.33733-0.666667C5.70552-0.666667 6.004-0.36819 6.004 0 6.004 0.36819 5.70552 0.666667 5.33733 0.666667L5.336 0.666667C4.96781 0.666667 4.66933 0.36819 4.66933 0 4.66933-0.36819 4.96781-0.666667 5.336-0.666667ZM8.004-0.666667 8.00533-0.666667C8.37352-0.666667 8.672-0.36819 8.672 0 8.672 0.36819 8.37352 0.666667 8.00533 0.666667L8.004 0.666667C7.63581 0.666667 7.33733 0.36819 7.33733 0 7.33733-0.36819 7.63581-0.666667 8.004-0.666667ZM10.672-0.666667 10.6733-0.666667C11.0415-0.666667 11.34-0.36819 11.34 0 11.34 0.36819 11.0415 0.666667 10.6733 0.666667L10.672 0.666667C10.3038 0.666667 10.0053 0.36819 10.0053 0 10.0053-0.36819 10.3038-0.666667 10.672-0.666667ZM13.34-0.666667 13.3413-0.666667C13.7095-0.666667 14.008-0.36819 14.008 0 14.008 0.36819 13.7095 0.666667 13.3413 0.666667L13.34 0.666667C12.9718 0.666667 12.6733 0.36819 12.6733 0 12.6733-0.36819 12.9718-0.666667 13.34-0.666667ZM16.008-0.666667 16.0093-0.666667C16.3775-0.666667 16.676-0.36819 16.676 0 16.676 0.36819 16.3775 0.666667 16.0093 0.666667L16.008 0.666667C15.6398 0.666667 15.3413 0.36819 15.3413 0 15.3413-0.36819 15.6398-0.666667 16.008-0.666667ZM18.676-0.666667 18.6773-0.666667C19.0455-0.666667 19.344-0.36819 19.344 0 19.344 0.36819 19.0455 0.666667 18.6773 0.666667L18.676 0.666667C18.3078 0.666667 18.0093 0.36819 18.0093 0 18.0093-0.36819 18.3078-0.666667 18.676-0.666667ZM21.344-0.666667 21.3453-0.666667C21.7135-0.666667 22.012-0.36819 22.012 0 22.012 0.36819 21.7135 0.666667 21.3453 0.666667L21.344 0.666667C20.9758 0.666667 20.6773 0.36819 20.6773 0 20.6773-0.36819 20.9758-0.666667 21.344-0.666667ZM24.012-0.666667 24.0133-0.666667C24.3815-0.666667 24.68-0.36819 24.68 0 24.68 0.36819 24.3815 0.666667 24.0133 0.666667L24.012 0.666667C23.6438 0.666667 23.3453 0.36819 23.3453 0 23.3453-0.36819 23.6438-0.666667 24.012-0.666667ZM26.68-0.666667 26.6813-0.666667C27.0495-0.666667 27.348-0.36819 27.348 0 27.348 0.36819 27.0495 0.666667 26.6813 0.666667L26.68 0.666667C26.3118 0.666667 26.0133 0.36819 26.0133 0 26.0133-0.36819 26.3118-0.666667 26.68-0.666667ZM29.348-0.666667 29.3493-0.666667C29.7175-0.666667 30.016-0.36819 30.016 0 30.016 0.36819 29.7175 0.666667 29.3493 0.666667L29.348 0.666667C28.9798 0.666667 28.6813 0.36819 28.6813 0 28.6813-0.36819 28.9798-0.666667 29.348-0.666667ZM32.016-0.666667 32.0173-0.666667C32.3855-0.666667 32.684-0.36819 32.684 0 32.684 0.36819 32.3855 0.666667 32.0173 0.666667L32.016 0.666667C31.6478 0.666667 31.3493 0.36819 31.3493 0 31.3493-0.36819 31.6478-0.666667 32.016-0.666667ZM34.684-0.666667 34.6853-0.666667C35.0535-0.666667 35.352-0.36819 35.352 0 35.352 0.36819 35.0535 0.666667 34.6853 0.666667L34.684 0.666667C34.3158 0.666667 34.0173 0.36819 34.0173 0 34.0173-0.36819 34.3158-0.666667 34.684-0.666667ZM37.352-0.666667 37.3533-0.666667C37.7215-0.666667 38.02-0.36819 38.02 0 38.02 0.36819 37.7215 0.666667 37.3533 0.666667L37.352 0.666667C36.9838 0.666667 36.6853 0.36819 36.6853 0 36.6853-0.36819 36.9838-0.666667 37.352-0.666667ZM40.02-0.666667 40.0213-0.666667C40.3895-0.666667 40.688-0.36819 40.688 0 40.688 0.36819 40.3895 0.666667 40.0213 0.666667L40.02 0.666667C39.6518 0.666667 39.3533 0.36819 39.3533 0 39.3533-0.36819 39.6518-0.666667 40.02-0.666667ZM43.097-0.268429 43.0979-0.267449C43.3478 0.00294185 43.3312 0.424725 43.0608 0.67463 42.7904 0.924535 42.3686 0.907928 42.1187 0.637537L42.1178 0.636557C41.8679 0.366166 41.8845-0.0556167 42.1549-0.305522 42.4253-0.555427 42.8471-0.53882 43.097-0.268429ZM44.9042 1.7284 44.905 1.72942C45.1444 2.00918 45.1117 2.43002 44.8319 2.66938 44.5521 2.90875 44.1313 2.87599 43.8919 2.59623L43.8911 2.59521C43.6517 2.31545 43.6844 1.89461 43.9642 1.65525 44.244 1.41588 44.6648 1.44864 44.9042 1.7284ZM46.6407 3.7631 46.6416 3.76412C46.878 4.04639 46.8408 4.46685 46.5585 4.70327 46.2763 4.93968 45.8558 4.9025 45.6194 4.62024L45.6185 4.61921C45.3821 4.33695 45.4193 3.91648 45.7016 3.68007 45.9838 3.44366 46.4043 3.48083 46.6407 3.7631ZM48.3537 5.80851 48.3546 5.80954C48.591 6.0918 48.5538 6.51227 48.2716 6.74868 47.9893 6.98509 47.5688 6.94792 47.3324 6.66565L47.3316 6.66463C47.0952 6.38237 47.1323 5.9619 47.4146 5.72548 47.6969 5.48907 48.1173 5.52625 48.3537 5.80851ZM50.0667 7.85383 50.0676 7.85485C50.304 8.13707 50.2669 8.55755 49.9847 8.79401 49.7025 9.03048 49.282 8.99339 49.0456 8.71117L49.0447 8.71015C48.8082 8.42793 48.8453 8.00745 49.1275 7.77099 49.4098 7.53452 49.8302 7.57161 50.0667 7.85383ZM51.7656 9.9222 51.7665 9.92323C51.9992 10.2085 51.9567 10.6285 51.6714 10.8612 51.3861 11.094 50.9661 11.0514 50.7334 10.7661L50.7325 10.7651C50.4998 10.4798 50.5424 10.0598 50.8276 9.82709 51.1129 9.59433 51.5329 9.63691 51.7656 9.9222ZM53.4477 11.9981 53.4485 11.9992C53.6796 12.2858 53.6346 12.7055 53.348 12.9366 53.0614 13.1677 52.6417 13.1227 52.4106 12.8361L52.4097 12.835C52.1786 12.5484 52.2236 12.1287 52.5102 11.8976 52.7969 11.6665 53.2166 11.7115 53.4477 11.9981ZM55.1294 14.0637 55.1303 14.0647C55.3632 14.3498 55.321 14.7698 55.0359 15.0028 54.7508 15.2358 54.3308 15.1935 54.0978 14.9084L54.097 14.9074C53.864 14.6223 53.9062 14.2023 54.1913 13.9693 54.4764 13.7364 54.8964 13.7786 55.1294 14.0637ZM0 4C-2.20914 4-4 2.20914-4 0-4-2.20914-2.20914-4 0-4 2.20914-4 4-2.20914 4 0 4 2.20914 2.20914 4 0 4Z" fill="#44546A" transform="matrix(-1 0 0 1 597.5 188.5)"/><g clip-path="url(#clip1)"><g clip-path="url(#clip2)"><g clip-path="url(#clip3)"><path d="M26.7857 25C27.2693 25 27.6879 25.1767 28.0413 25.5301 28.3948 25.8836 28.5714 26.3021 28.5714 26.7857 28.5714 27.2693 28.3948 27.6879 28.0413 28.0413 27.6879 28.3948 27.2693 28.5714 26.7857 28.5714 26.3021 28.5714 25.8836 28.3948 25.5301 28.0413 25.1767 27.6879 25 27.2693 25 26.7857 25 26.3021 25.1767 25.8836 25.5301 25.5301 25.8836 25.1767 26.3021 25 26.7857 25ZM35.1562 26.7857 49.3025 37.8906C49.8234 38.2626 50.0558 38.7835 50 39.4531 49.9071 40.1041 49.5815 40.5784 49.0234 40.8761L45.452 42.6618C45.2101 42.7921 44.9406 42.8571 44.6429 42.8571 44.3267 42.8571 44.0382 42.7826 43.7779 42.6339L24.5257 31.8359 21.4565 33.6775C21.3077 33.752 21.1961 33.7983 21.1217 33.817 21.3821 34.7285 21.4751 35.6306 21.4007 36.5234 21.2705 37.9556 20.7496 39.3276 19.8382 40.639 18.9267 41.9503 17.699 43.0991 16.1551 44.0848 13.6998 45.6473 11.1235 46.4286 8.42634 46.4286 5.89657 46.4286 3.83184 45.7031 2.23214 44.2522 0.558036 42.6897-0.176711 40.7645 0.0279018 38.4766 0.15811 37.0628 0.678943 35.6956 1.5904 34.375 2.50186 33.0544 3.72023 31.9009 5.24554 30.9152 7.70089 29.3527 10.2865 28.5714 13.0022 28.5714 14.5461 28.5714 15.9505 28.8597 17.2154 29.4364 17.3828 29.1945 17.5874 28.99 17.8292 28.8225L21.2333 26.7857 17.8292 24.7489C17.5874 24.5815 17.3828 24.3769 17.2154 24.135 15.9505 24.7117 14.5461 25 13.0022 25 10.2865 25 7.70089 24.2188 5.24554 22.6562 3.72023 21.6704 2.50186 20.5171 1.5904 19.1964 0.678943 17.8758 0.15811 16.5086 0.0279018 15.0949-0.0651041 13.9974 0.079055 12.9464 0.460379 11.942 0.841705 10.9375 1.43229 10.0725 2.23214 9.3471 3.81325 7.87759 5.87799 7.14286 8.42634 7.14286 11.1235 7.14286 13.6998 7.92411 16.1551 9.48661 17.699 10.4539 18.9267 11.5979 19.8382 12.9185 20.7496 14.2392 21.2705 15.6157 21.4007 17.048 21.4751 17.9408 21.3821 18.843 21.1217 19.7545 21.1961 19.7731 21.3077 19.8196 21.4565 19.894L24.5257 21.7355 43.7779 10.9375C44.0382 10.7887 44.3267 10.7143 44.6429 10.7143 44.9406 10.7143 45.2101 10.7794 45.452 10.9096L49.0234 12.6953C49.5815 12.9929 49.9071 13.4673 50 14.1183 50.0558 14.7879 49.8234 15.3088 49.3025 15.6808ZM16.1551 19.5312C17.0108 18.75 17.2061 17.7455 16.7411 16.5179 16.276 15.2902 15.2902 14.202 13.7835 13.2533 12.0722 12.1559 10.2865 11.6071 8.42634 11.6071 7.04986 11.6071 5.99888 11.942 5.27344 12.6116 4.41777 13.3929 4.22246 14.3973 4.6875 15.625 5.15254 16.8527 6.13839 17.9408 7.64509 18.8895 9.35639 19.987 11.1421 20.5357 13.0022 20.5357 14.3787 20.5357 15.4297 20.2009 16.1551 19.5312ZM13.7835 40.3181C15.2902 39.3694 16.276 38.2812 16.7411 37.0536 17.2061 35.8259 17.0108 34.8214 16.1551 34.0402 15.4297 33.3705 14.3787 33.0357 13.0022 33.0357 11.1421 33.0357 9.35639 33.5845 7.64509 34.6819 6.13839 35.6306 5.15254 36.7188 4.6875 37.9464 4.22246 39.1741 4.41777 40.1786 5.27344 40.9598 5.99888 41.6295 7.04986 41.9643 8.42634 41.9643 10.2865 41.9643 12.0722 41.4155 13.7835 40.3181ZM18.75 23.2143 21.4286 24.8326 21.4286 24.5257C21.4286 23.856 21.7355 23.3352 22.3493 22.9632L22.74 22.74 20.5357 21.4286 19.8103 22.154C19.7545 22.2098 19.6615 22.3121 19.5312 22.4609 19.401 22.6097 19.2894 22.7213 19.1964 22.7958 19.1592 22.833 19.122 22.8655 19.0848 22.8934 19.0476 22.9213 19.0197 22.9446 19.0011 22.9632ZM25 29.4643 27.6786 30.3571 48.2143 14.2857 44.6429 12.5 23.2143 24.5257 23.2143 27.6786 18.75 30.3571 19.0011 30.5804C19.0383 30.6175 19.1034 30.6733 19.1964 30.7478 19.2708 30.8223 19.3731 30.9339 19.5033 31.0826 19.6336 31.2313 19.7359 31.3429 19.8103 31.4174L20.5357 32.1429ZM44.6429 41.0714 48.2143 39.2857 33.7054 27.9018 28.7667 31.7522C28.7296 31.808 28.6085 31.873 28.404 31.9475Z" fill="#404040" transform="matrix(-1 0 0 1 1052 163)"/></g></g></g><path d="M989 59 989 270.2" stroke="#000000" stroke-width="3.66667" stroke-miterlimit="8" stroke-dasharray="3.66667 3.66667" fill="none" fill-rule="evenodd"/><path d="M1.33334 6.66657 1.33344 153.6-1.33323 153.6-1.33333 6.66657ZM-3.99999 8 0 0 4.00001 8Z" fill="#BFBFBF" transform="matrix(-6.12323e-17 -1 -1 6.12323e-17 425.1 44.5001)"/><text fill="#BFBFBF" font-family="Arial,Arial_MSFontService,sans-serif" font-weight="400" font-size="21" transform="translate(217.589 49)">Time</text><text fill="#BFBFBF" font-family="Arial,Arial_MSFontService,sans-serif" font-weight="400" font-size="21" transform="matrix(-1.83697e-16 -1 1 -1.83697e-16 55.1268 215)">Pixel rows</text><path d="M49.8334 231.5 49.8335 272.833 47.1668 272.833 47.1667 231.5ZM52.5001 271.5 48.5002 279.5 44.5001 271.5Z" fill="#BFBFBF"/></g></svg>